<svg width="264" height="37" viewBox="0 0 264 37" fill="none" xmlns="http://www.w3.org/2000/svg">
<path d="M2.312 31V7.2H7.82V16.822H16.048V7.2H21.556V31H16.048V21.548H7.82V31H2.312ZM31.897 31.442C29.9477 31.442 28.4517 30.864 27.409 29.708C26.3664 28.5293 25.845 26.8747 25.845 24.744V14.612H31.115V23.588C31.115 25.9 32.0217 27.056 33.835 27.056C35.943 27.056 36.997 25.8433 36.997 23.418V14.612H42.165V31H36.997V28.654C36.0224 30.5127 34.3224 31.442 31.897 31.442ZM46.4682 31V14.612H51.6702V16.992C52.0328 16.1533 52.6222 15.4733 53.4382 14.952C54.2768 14.4307 55.2515 14.17 56.3622 14.17C58.9462 14.17 60.6575 15.1787 61.4962 17.196C61.9495 16.2893 62.6408 15.564 63.5702 15.02C64.4995 14.4533 65.5535 14.17 66.7322 14.17C70.6082 14.17 72.5462 16.3913 72.5462 20.834V31H67.3102V21.786C67.3102 19.6327 66.4942 18.556 64.8622 18.556C63.0262 18.556 62.1082 19.8933 62.1082 22.568V31H56.8722V21.752C56.8722 19.6213 56.0675 18.556 54.4582 18.556C53.5515 18.556 52.8602 18.862 52.3842 19.474C51.9082 20.0633 51.6702 21.0947 51.6702 22.568V31H46.4682ZM83.1778 31.442C80.7978 31.442 78.9165 30.6373 77.5338 29.028C76.1511 27.4187 75.4598 25.3447 75.4598 22.806C75.4598 20.3127 76.1738 18.25 77.6018 16.618C79.0298 14.986 80.9111 14.17 83.2458 14.17C84.4018 14.17 85.4331 14.4193 86.3398 14.918C87.2465 15.4167 87.9265 16.0967 88.3798 16.958V14.612H93.5478V31H88.3798V28.688C87.9265 29.504 87.2238 30.1727 86.2718 30.694C85.3425 31.1927 84.3111 31.442 83.1778 31.442ZM84.6738 27.124C85.9205 27.124 86.8838 26.716 87.5638 25.9C88.2438 25.084 88.5838 24.0527 88.5838 22.806C88.5838 21.582 88.2438 20.562 87.5638 19.746C86.8838 18.93 85.9205 18.522 84.6738 18.522C83.4951 18.522 82.5431 18.9187 81.8178 19.712C81.1151 20.5053 80.7638 21.5367 80.7638 22.806C80.7638 24.0753 81.1151 25.118 81.8178 25.934C82.5431 26.7273 83.4951 27.124 84.6738 27.124ZM97.8666 31V14.612H103.069V16.992C104.043 15.1107 105.811 14.17 108.373 14.17C112.362 14.17 114.357 16.4027 114.357 20.868V31H109.121V22.568C109.121 21.1627 108.894 20.1427 108.441 19.508C108.01 18.8733 107.273 18.556 106.231 18.556C104.123 18.556 103.069 19.848 103.069 22.432V31H97.8666ZM130.215 7.2H135.417V31H130.249V28.688C129.796 29.504 129.093 30.1727 128.141 30.694C127.212 31.1927 126.18 31.442 125.047 31.442C122.667 31.442 120.786 30.6373 119.403 29.028C118.02 27.4187 117.329 25.3447 117.329 22.806C117.329 20.3127 118.043 18.25 119.471 16.618C120.899 14.986 122.78 14.17 125.115 14.17C126.271 14.17 127.302 14.4193 128.209 14.918C129.116 15.4167 129.796 16.0967 130.249 16.958V15.564H130.215V7.2ZM126.543 27.124C127.79 27.124 128.753 26.716 129.433 25.9C130.113 25.084 130.453 24.0527 130.453 22.806C130.453 21.582 130.113 20.562 129.433 19.746C128.753 18.93 127.79 18.522 126.543 18.522C125.364 18.522 124.412 18.9187 123.687 19.712C122.984 20.5053 122.633 21.5367 122.633 22.806C122.633 24.0753 122.984 25.118 123.687 25.934C124.412 26.7273 125.364 27.124 126.543 27.124ZM154.152 29.062C152.52 30.694 150.321 31.51 147.556 31.51C144.79 31.51 142.58 30.694 140.926 29.062C139.271 27.43 138.444 25.3447 138.444 22.806C138.444 20.2673 139.271 18.1933 140.926 16.584C142.58 14.952 144.79 14.136 147.556 14.136C150.321 14.136 152.52 14.952 154.152 16.584C155.806 18.1933 156.634 20.2673 156.634 22.806C156.634 25.3447 155.806 27.43 154.152 29.062ZM147.556 27.09C148.757 27.09 149.709 26.6933 150.412 25.9C151.114 25.1067 151.466 24.0753 151.466 22.806C151.466 21.5367 151.114 20.5053 150.412 19.712C149.709 18.9187 148.757 18.522 147.556 18.522C146.332 18.522 145.368 18.9187 144.666 19.712C143.986 20.5053 143.646 21.5367 143.646 22.806C143.646 24.0753 143.986 25.1067 144.666 25.9C145.368 26.6933 146.332 27.09 147.556 27.09ZM159.624 31V14.612H164.826V16.992C165.801 15.1107 167.569 14.17 170.13 14.17C174.12 14.17 176.114 16.4027 176.114 20.868V31H170.878V22.568C170.878 21.1627 170.652 20.1427 170.198 19.508C169.768 18.8733 169.031 18.556 167.988 18.556C165.88 18.556 164.826 19.848 164.826 22.432V31H159.624ZM196.393 21.956C196.393 22.636 196.347 23.3953 196.257 24.234H184.153C184.198 25.2993 184.561 26.1267 185.241 26.716C185.921 27.3053 186.839 27.6 187.995 27.6C189.581 27.6 190.601 27.09 191.055 26.07H196.155C195.905 27.6793 195.021 28.994 193.503 30.014C192.007 31.0113 190.171 31.51 187.995 31.51C185.207 31.51 183.008 30.7393 181.399 29.198C179.789 27.6567 178.985 25.526 178.985 22.806C178.985 20.1313 179.789 18.0233 181.399 16.482C183.008 14.918 185.15 14.136 187.825 14.136C190.363 14.136 192.426 14.8613 194.013 16.312C195.599 17.7627 196.393 19.644 196.393 21.956ZM184.153 21.004H191.259C191.236 19.916 190.93 19.0773 190.341 18.488C189.751 17.8987 188.901 17.604 187.791 17.604C186.68 17.604 185.796 17.9213 185.139 18.556C184.504 19.168 184.175 19.984 184.153 21.004ZM204.479 30.354C203.844 31.0113 203.051 31.34 202.099 31.34C201.147 31.34 200.342 31.0113 199.685 30.354C199.05 29.6967 198.733 28.9147 198.733 28.008C198.733 27.0787 199.05 26.2967 199.685 25.662C200.342 25.0047 201.147 24.676 202.099 24.676C203.051 24.676 203.844 25.0047 204.479 25.662C205.136 26.2967 205.465 27.0787 205.465 28.008C205.465 28.9147 205.136 29.6967 204.479 30.354Z" fill="#121214"/>
<path opacity="0.6" d="M224.8 13.375C224.5 13.625 224.3 13.8 224.1 13.95C223.475 14.425 222.825 14.825 222.05 15C220.225 15.4 218.7 14.3 218.525 12.425C218.175 9.325 221.025 6.85 224.1 7.55C224.525 7.65 224.9 7.8 225.4 7.925C225.5 7.325 225.6 6.75 225.7 6.15C225.975 4.75 226.225 3.35 226.5 1.925C226.55 1.7 226.6 1.45 226.725 1.275C226.925 1.075 227.2 0.899999 227.45 0.875C227.8 0.824999 228.05 1.075 228.1 1.45C228.15 1.75 228.175 2.1 228.125 2.4C227.9 4.175 227.6 5.975 227.4 7.75C227.15 9.9 227.025 12.075 226.8 14.225C226.725 14.75 226.575 15.275 226.35 15.75C226.15 16.225 225.85 16.225 225.5 15.85C225.125 15.425 224.9 14.925 224.875 14.325C224.875 14.075 224.825 13.8 224.8 13.375ZM225.175 9.6C224.4 9.5 223.85 9.4 223.275 9.425C222.775 9.425 222.25 9.525 221.825 9.75C220.925 10.15 220.5 10.95 220.475 11.9C220.425 12.9 221.075 13.375 221.95 12.9C222.55 12.625 223.1 12.175 223.575 11.7C224.125 11.1 224.575 10.4 225.175 9.6ZM229.989 12.15C230.039 12.45 230.064 12.75 230.164 13.05C230.514 14.25 231.339 14.7 232.539 14.225C233.214 13.95 233.839 13.625 234.489 13.325C234.564 13.3 234.664 13.275 234.839 13.2C234.739 14.175 234.439 14.925 233.664 15.425C232.139 16.425 229.914 16.25 228.914 14.25C228.139 12.65 228.164 11 228.989 9.425C229.764 7.925 231.239 7.325 232.739 7.825C232.989 7.925 233.264 8.05 233.514 8.2C234.614 9.025 234.639 10.425 233.514 11.225C232.664 11.85 231.689 12.175 230.614 12.15C230.414 12.15 230.239 12.15 229.989 12.15ZM230.189 10.875C231.139 11 231.964 10.775 232.714 10.2C232.989 9.975 232.964 9.675 232.664 9.475C232.464 9.35 232.239 9.25 232.014 9.225C231.089 9.1 230.414 9.7 230.189 10.875ZM236.559 13.95L238.484 14.05C238.859 14.075 239.259 14.225 239.484 13.775C239.634 13.475 239.384 13.1 238.859 12.8C238.559 12.625 238.209 12.475 237.884 12.275C237.384 11.95 236.834 11.625 236.459 11.175C235.509 10.1 235.634 8.575 236.709 7.625C237.759 6.7 239.359 6.6 240.509 7.35C240.859 7.6 241.159 7.9 241.234 8.35C241.284 8.8 241.059 9 240.609 8.925C240.234 8.825 239.859 8.675 239.484 8.575C239.059 8.45 238.634 8.4 238.209 8.6C237.434 8.975 237.284 9.725 237.959 10.3C238.284 10.6 238.709 10.775 239.084 11C239.559 11.3 240.109 11.55 240.509 11.9C241.284 12.6 241.459 13.7 241.059 14.6C240.684 15.45 239.859 15.925 238.809 15.9C237.709 15.875 236.959 15.35 236.609 14.375C236.584 14.275 236.584 14.175 236.559 13.95ZM244.451 14.475C244.451 14.7 244.426 14.925 244.376 15.125C244.276 15.625 243.851 16.075 243.526 16.05C243.201 16.025 242.726 15.55 242.651 15.1C242.601 14.8 242.551 14.475 242.576 14.175C242.651 12.775 242.751 11.4 242.851 10.05C242.876 9.775 242.951 9.5 243.051 9.25C243.176 8.925 243.451 8.675 243.851 8.725C244.226 8.775 244.451 9.025 244.526 9.4C244.551 9.7 244.551 10.05 244.551 10.35C244.626 11.9 244.451 13 244.451 14.475ZM243.276 6.125C243.276 5.225 243.626 4.675 244.151 4.7C244.626 4.7 244.926 5.15 244.926 5.925C244.926 6.775 244.551 7.375 244.051 7.325C243.601 7.325 243.276 6.85 243.276 6.125ZM248.441 19.825C251.066 17.5 252.041 14.575 251.716 11.075C251.541 11.275 251.441 11.4 251.266 11.55C250.716 12.05 250.191 12.65 249.566 13.075C249.116 13.35 248.541 13.525 248.016 13.575C246.791 13.725 245.891 12.875 245.891 11.675C245.891 11.075 246.016 10.45 246.266 9.9C246.966 8.375 248.266 7.475 249.891 7.05C250.316 6.925 250.841 7.025 251.416 7.025C251.416 7.025 251.491 6.875 251.591 6.775C252.116 6.175 252.816 6.275 253.041 7.05C253.216 7.625 253.341 8.225 253.416 8.825C253.641 11.1 253.666 13.325 253.191 15.575C252.991 16.5 252.666 17.35 252.141 18.15C251.291 19.525 250.016 19.975 248.441 19.825ZM251.116 8.125C250.016 8.45 249.016 8.85 248.291 9.7C247.941 10.125 247.691 10.7 247.516 11.225C247.316 11.8 247.666 12.1 248.241 11.9C248.666 11.75 249.091 11.525 249.366 11.2C249.841 10.7 250.241 10.075 250.616 9.5C250.866 9.1 251.091 8.675 251.116 8.125ZM256.85 10.5C257.075 10.1 257.25 9.875 257.425 9.65C257.875 9.175 258.275 8.6 258.775 8.2C259.925 7.275 261.25 7.5 262.025 8.75C262.3 9.175 262.55 9.65 262.675 10.1C263.025 11.175 263.3 12.3 263.6 13.4C263.725 13.875 263.675 14.35 263.45 14.8C263.225 15.225 262.925 15.25 262.525 15C262.15 14.7 261.9 14.35 261.8 13.875C261.625 13.2 261.475 12.525 261.3 11.875C261.125 11.275 260.925 10.725 260.7 10.125C260.575 9.875 260.375 9.625 260.2 9.35C259.575 9.575 259.225 10.025 258.9 10.475C258.1 11.625 257.5 12.9 257 14.225C256.925 14.4 256.85 14.625 256.775 14.825C256.6 15.2 256.3 15.375 255.875 15.325C255.525 15.275 255.225 15.025 255.125 14.6C255.125 14.475 255.125 14.35 255.125 14.2C255.2 12.45 255.325 10.725 255.425 8.975C255.425 8.7 255.475 8.425 255.575 8.175C255.65 8.025 255.85 7.825 256 7.775C256.275 7.725 256.425 7.925 256.525 8.175C256.6 8.375 256.625 8.575 256.65 8.8C256.7 9.3 256.75 9.8 256.85 10.5Z" fill="#80838F"/>
<path opacity="0.6" d="M220.625 28.075C221.1 27.5 221.425 27.025 221.825 26.6C222.175 26.225 222.525 25.925 222.925 25.675C224.175 24.875 225.425 25.15 226.175 26.45C226.65 27.25 226.85 28.125 226.975 29.025C227.075 29.675 227.125 30.3 227.175 30.925C227.175 31.075 227.175 31.25 227.175 31.4C227.125 31.925 226.725 32.4 226.325 32.45C225.9 32.475 225.4 32.05 225.275 31.525C225.2 31.125 225.2 30.7 225.125 30.275C224.975 29.375 224.85 28.475 224.6 27.625C224.4 26.875 224.025 26.825 223.45 27.325C223.075 27.65 222.725 27.975 222.475 28.375C221.9 29.4 221.35 30.425 220.8 31.45C220.7 31.65 220.65 31.9 220.525 32.125C220.275 32.65 219.85 32.875 219.4 32.75C219 32.65 218.75 32.325 218.775 31.775C218.8 30.4 218.825 29.05 218.95 27.725C219.2 24.95 219.7 22.25 220.375 19.55C220.5 19.125 220.675 18.7 220.875 18.3C220.975 18.05 221.225 17.85 221.5 18.025C221.65 18.125 221.8 18.425 221.775 18.625C221.675 19.425 221.475 20.225 221.375 21.05C221.125 23.2 220.875 25.35 220.625 27.525C220.6 27.65 220.625 27.775 220.625 28.075ZM234.641 29.8L234.466 29.7C234.316 29.925 234.166 30.15 233.991 30.325C233.616 30.675 233.241 31 232.816 31.275C231.141 32.325 229.566 31.8 228.841 29.925C228.266 28.45 228.166 26.95 228.466 25.4C228.566 24.925 228.866 24.625 229.216 24.65C229.616 24.65 229.891 25 229.941 25.575C229.966 26.025 229.891 26.525 229.966 26.975C230.566 32.5 233.141 28.75 234.816 26.05C234.991 25.725 235.091 25.35 235.266 25C235.566 24.475 235.916 24.275 236.341 24.425C236.741 24.55 237.016 25 236.966 25.575C236.966 25.95 236.866 26.375 236.841 26.775C236.741 27.95 236.716 29.175 236.616 30.35C236.591 30.75 236.541 31.175 236.341 31.55C236.141 31.975 235.766 32.05 235.366 31.775C235.016 31.5 234.816 31.175 234.766 30.75C234.741 30.425 234.691 30.1 234.641 29.8ZM240.258 26.275C240.933 26 241.533 25.75 242.108 25.575C242.808 25.35 243.508 25.35 244.233 25.575C245.633 25.975 246.333 27.125 246.058 28.575C245.808 30.15 244.558 31.4 242.833 31.775C242.158 31.9 241.458 31.9 240.683 31.975C240.658 32 240.583 32.175 240.458 32.3C239.983 32.95 239.108 32.85 238.833 32.075C238.683 31.55 238.583 30.975 238.533 30.425C238.308 26.75 238.133 23.075 238.308 19.375C238.308 19.125 238.308 18.9 238.358 18.675C238.458 18.225 238.783 17.925 239.158 17.9C239.558 17.9 239.908 18.175 240.033 18.625C240.058 18.925 240.058 19.25 240.083 19.55C240.133 21.65 240.183 23.7 240.233 25.775C240.233 25.925 240.233 26.075 240.258 26.275ZM240.533 30.05C241.308 29.925 242.008 29.9 242.708 29.725C243.433 29.525 243.933 29.025 244.133 28.275C244.258 27.675 244.033 27.35 243.433 27.25C243.258 27.2 243.058 27.2 242.883 27.225C241.383 27.375 240.558 28.325 240.533 30.05Z" fill="#80838F"/>
</svg>
